<svg width="8" height="16" viewBox="0 0 8 16" fill="none" xmlns="http://www.w3.org/2000/svg">
<path fill-rule="evenodd" clip-rule="evenodd" d="M0.261935 15.3015C0.187112 15.2374 0.12566 15.1591 0.0810916 15.0712C0.0365229 14.9833 0.00971079 14.8875 0.00218837 14.7893C-0.00533405 14.691 0.00658085 14.5922 0.0372511 14.4986C0.0679214 14.4049 0.116746 14.3183 0.180935 14.2435L5.76193 7.73149L0.180934 1.21949C0.0590629 1.06766 0.00100634 0.874393 0.0190373 0.680541C0.0370682 0.486689 0.129773 0.307446 0.277555 0.180701C0.425337 0.0539567 0.616614 -0.0103559 0.81095 0.0013608C1.00529 0.0130774 1.18745 0.0999037 1.31893 0.243485L7.31893 7.24349C7.4354 7.37941 7.49941 7.55249 7.49941 7.73149C7.49941 7.91048 7.4354 8.08357 7.31893 8.21949L1.31894 15.2195C1.18945 15.3703 1.00539 15.4635 0.807198 15.4787C0.609004 15.4939 0.412887 15.4298 0.261935 15.3005" fill="#70707F"/>
</svg>
