<svg width="555" height="193" viewBox="0 0 555 193" fill="none" xmlns="http://www.w3.org/2000/svg">
<g clip-path="url(#clip0_1200_4469)">
<rect x="11.5615" y="10.999" width="529.583" height="171.147" fill="white"/>
<path d="M11.5211 47.6494L11.5211 70.693C14.7148 70.693 17.6044 69.403 19.6947 67.3163C21.7882 65.2329 23.0825 62.3496 23.0825 59.1696C23.0825 55.9896 21.7882 53.1063 19.6947 51.0229C17.6044 48.9395 14.7148 47.6494 11.5211 47.6494Z" fill="#101820"/>
<path d="M11.5614 80.6924L11.5614 103.736C8.36769 103.736 5.47815 102.446 3.38785 100.359C1.29431 98.2758 1.91342e-06 95.3926 1.49951e-06 92.2126C1.08559e-06 89.0326 1.29431 86.1493 3.38785 84.0659C5.47815 81.9824 8.36768 80.6924 11.5614 80.6924Z" fill="white"/>
<path d="M11.5211 93.7354L11.5211 116.779C14.7148 116.779 17.6044 115.489 19.6947 113.402C21.7882 111.319 23.0825 108.436 23.0825 105.256C23.0825 102.076 21.7882 99.1923 19.6947 97.1088C17.6044 95.0254 14.7148 93.7354 11.5211 93.7354Z" fill="#101820"/>
<path d="M11.5216 1.5625L11.5216 24.6061C14.7153 24.6061 17.6049 23.3161 19.6952 21.2294C21.7887 19.146 23.083 16.2627 23.083 13.0827C23.083 9.90271 21.7887 7.01943 19.6952 4.93599C17.6049 2.85255 14.7153 1.5625 11.5216 1.5625Z" fill="#101820"/>
<path d="M11.5614 34.6055L11.5614 57.6491C8.36769 57.6491 5.47815 56.359 3.38785 54.2724C1.29431 52.1889 1.91342e-06 49.3057 1.49951e-06 46.1257C1.08559e-06 42.9457 1.29431 40.0624 3.38785 37.979C5.47815 35.8955 8.36768 34.6055 11.5614 34.6055Z" fill="white"/>
<path d="M11.5211 139.822L11.5211 162.866C14.7148 162.866 17.6044 161.576 19.6947 159.489C21.7882 157.406 23.0825 154.522 23.0825 151.342C23.0825 148.162 21.7882 145.279 19.6947 143.196C17.6044 141.112 14.7148 139.822 11.5211 139.822Z" fill="#101820"/>
<path d="M11.5211 185.909L11.5211 208.953C14.7148 208.953 17.6044 207.663 19.6947 205.576C21.7882 203.493 23.0825 200.609 23.0825 197.429C23.0825 194.249 21.7882 191.366 19.6947 189.283C17.6044 187.199 14.7148 185.909 11.5211 185.909Z" fill="#101820"/>
<path d="M11.5216 93.7354L11.5216 116.779C14.7153 116.779 17.6049 115.489 19.6952 113.402C21.7887 111.319 23.083 108.436 23.083 105.256C23.083 102.076 21.7887 99.1923 19.6952 97.1088C17.6049 95.0254 14.7153 93.7354 11.5216 93.7354Z" fill="#101820"/>
<path d="M11.5614 126.778L11.5614 149.822C8.36769 149.822 5.47815 148.532 3.38785 146.445C1.29431 144.362 1.91342e-06 141.479 1.49951e-06 138.299C1.08559e-06 135.119 1.29431 132.235 3.38785 130.152C5.47815 128.068 8.36768 126.778 11.5614 126.778Z" fill="white"/>
<path d="M541.184 90.6943L541.184 67.6507C537.991 67.6507 535.101 68.9408 533.011 71.0274C530.917 73.1109 529.623 75.9942 529.623 79.1741C529.623 82.3541 530.917 85.2374 533.011 87.3208C535.101 89.4043 537.991 90.6943 541.184 90.6943Z" fill="#101820"/>
<path d="M541.144 57.6504L541.144 34.6068C544.337 34.6068 547.227 35.8968 549.317 37.9835C551.411 40.0669 552.705 42.9502 552.705 46.1302C552.705 49.3102 551.411 52.1935 549.317 54.2769C547.227 56.3603 544.337 57.6504 541.144 57.6504Z" fill="white"/>
<path d="M541.184 44.6074L541.184 21.5638C537.991 21.5638 535.101 22.8539 533.011 24.9405C530.917 27.024 529.623 29.9072 529.623 33.0872C529.623 36.2672 530.917 39.1505 533.011 41.2339C535.101 43.3174 537.991 44.6074 541.184 44.6074Z" fill="#101820"/>
<path d="M541.144 103.738L541.144 80.6947C544.337 80.6947 547.227 81.9847 549.317 84.0714C551.411 86.1548 552.705 89.0381 552.705 92.2181C552.705 95.3981 551.411 98.2813 549.317 100.365C547.227 102.448 544.337 103.738 541.144 103.738Z" fill="white"/>
<path d="M541.184 190.909L541.184 167.866C537.991 167.866 535.101 169.156 533.011 171.242C530.917 173.326 529.623 176.209 529.623 179.389C529.623 182.569 530.917 185.452 533.011 187.536C535.101 189.619 537.991 190.909 541.184 190.909Z" fill="#101820"/>
<path d="M541.144 157.866L541.144 134.823C544.337 134.823 547.227 136.113 549.317 138.199C551.411 140.283 552.705 143.166 552.705 146.346C552.705 149.526 551.411 152.409 549.317 154.493C547.227 156.576 544.337 157.866 541.144 157.866Z" fill="white"/>
<path d="M541.184 144.823L541.184 121.78C537.991 121.78 535.101 123.07 533.011 125.156C530.917 127.24 529.623 130.123 529.623 133.303C529.623 136.483 530.917 139.366 533.011 141.45C535.101 143.533 537.991 144.823 541.184 144.823Z" fill="#101820"/>
<path d="M206.056 10.0001L182.996 10.0001C182.996 13.1938 184.287 16.0834 186.375 18.1737C188.46 20.2672 191.345 21.5615 194.527 21.5615C197.71 21.5615 200.595 20.2672 202.68 18.1737C204.765 16.0834 206.056 13.1938 206.056 10.0001Z" fill="#101820"/>
<path d="M172.989 11.5614L149.929 11.5614C149.929 8.36769 151.22 5.47815 153.308 3.38785C155.393 1.29431 158.278 1.27086e-06 161.46 9.95942e-07C164.643 7.21026e-07 167.528 1.29431 169.613 3.38784C171.698 5.47815 172.989 8.36768 172.989 11.5614Z" fill="white"/>
<path d="M159.936 10.0001L136.876 10.0001C136.876 13.1938 138.167 16.0834 140.255 18.1737C142.34 20.2672 145.225 21.5615 148.407 21.5615C151.589 21.5615 154.475 20.2672 156.56 18.1737C158.645 16.0834 159.936 13.1938 159.936 10.0001Z" fill="#101820"/>
<path d="M252.175 10.0001L229.115 10.0001C229.115 13.1938 230.406 16.0834 232.494 18.1737C234.579 20.2672 237.465 21.5615 240.647 21.5615C243.829 21.5615 246.715 20.2672 248.799 18.1737C250.884 16.0834 252.175 13.1938 252.175 10.0001Z" fill="#101820"/>
<path d="M298.295 10.0001L275.235 10.0001C275.235 13.1938 276.526 16.0834 278.614 18.1737C280.699 20.2672 283.584 21.5615 286.767 21.5615C289.949 21.5615 292.834 20.2672 294.919 18.1737C297.004 16.0834 298.295 13.1938 298.295 10.0001Z" fill="#101820"/>
<path d="M390.535 10.0001L367.475 10.0001C367.475 13.1938 368.766 16.0834 370.854 18.1737C372.939 20.2672 375.824 21.5615 379.006 21.5615C382.189 21.5615 385.074 20.2672 387.159 18.1737C389.244 16.0834 390.535 13.1938 390.535 10.0001Z" fill="#101820"/>
<path d="M344.415 10.0001L321.355 10.0001C321.355 13.1938 322.646 16.0834 324.734 18.1737C326.819 20.2672 329.704 21.5615 332.887 21.5615C336.069 21.5615 338.954 20.2672 341.039 18.1737C343.124 16.0834 344.415 13.1938 344.415 10.0001Z" fill="#101820"/>
<path d="M436.655 10.0001L413.595 10.0001C413.595 13.1938 414.886 16.0834 416.974 18.1737C419.059 20.2672 421.945 21.5615 425.127 21.5615C428.309 21.5615 431.194 20.2672 433.279 18.1737C435.364 16.0834 436.655 13.1938 436.655 10.0001Z" fill="#101820"/>
<path d="M482.775 10.0001L459.715 10.0001C459.715 13.1938 461.006 16.0834 463.094 18.1737C465.179 20.2672 468.064 21.5615 471.247 21.5615C474.429 21.5615 477.314 20.2672 479.399 18.1737C481.484 16.0834 482.775 13.1938 482.775 10.0001Z" fill="#101820"/>
<path d="M528.895 10.0001L505.835 10.0001C505.835 13.1938 507.126 16.0834 509.214 18.1737C511.299 20.2672 514.184 21.5615 517.367 21.5615C520.549 21.5615 523.434 20.2672 525.519 18.1737C527.604 16.0834 528.895 13.1938 528.895 10.0001Z" fill="#101820"/>
<path d="M219.108 11.5614L196.048 11.5614C196.048 8.36769 197.339 5.47815 199.428 3.38785C201.513 1.29431 204.398 1.27086e-06 207.58 9.95942e-07C210.762 7.21026e-07 213.648 1.29431 215.733 3.38784C217.817 5.47815 219.108 8.36768 219.108 11.5614Z" fill="white"/>
<path d="M311.348 11.5614L288.288 11.5614C288.288 8.36769 289.579 5.47815 291.667 3.38785C293.752 1.29431 296.637 1.27086e-06 299.819 9.95942e-07C303.002 7.21026e-07 305.887 1.29431 307.972 3.38784C310.057 5.47815 311.348 8.36768 311.348 11.5614Z" fill="white"/>
<path d="M265.228 11.5614L242.168 11.5614C242.168 8.36769 243.459 5.47815 245.547 3.38785C247.632 1.29431 250.517 1.27086e-06 253.7 9.95942e-07C256.882 7.21026e-07 259.767 1.29431 261.852 3.38784C263.937 5.47815 265.228 8.36768 265.228 11.5614Z" fill="white"/>
<path d="M357.468 11.5614L334.408 11.5614C334.408 8.36769 335.699 5.47815 337.787 3.38785C339.872 1.29431 342.757 1.27086e-06 345.939 9.95942e-07C349.122 7.21026e-07 352.007 1.29431 354.092 3.38784C356.177 5.47815 357.468 8.36768 357.468 11.5614Z" fill="white"/>
<path d="M403.588 11.5614L380.528 11.5614C380.528 8.36769 381.819 5.47815 383.907 3.38785C385.992 1.29431 388.877 1.27086e-06 392.06 9.95942e-07C395.242 7.21026e-07 398.127 1.29431 400.212 3.38784C402.297 5.47815 403.588 8.36768 403.588 11.5614Z" fill="white"/>
<path d="M449.708 11.5614L426.648 11.5614C426.648 8.36769 427.939 5.47815 430.027 3.38785C432.112 1.29431 434.997 1.27086e-06 438.179 9.95942e-07C441.361 7.21026e-07 444.247 1.29431 446.332 3.38784C448.417 5.47815 449.708 8.36768 449.708 11.5614Z" fill="white"/>
<path d="M541.947 11.5614L518.887 11.5614C518.887 8.36769 520.178 5.47815 522.266 3.38785C524.351 1.29431 527.237 1.27086e-06 530.419 9.95942e-07C533.601 7.21026e-07 536.486 1.29431 538.571 3.38784C540.656 5.47815 541.947 8.36768 541.947 11.5614Z" fill="white"/>
<path d="M495.828 11.5614L472.768 11.5614C472.768 8.36769 474.059 5.47815 476.147 3.38785C478.232 1.29431 481.117 1.27086e-06 484.299 9.95942e-07C487.482 7.21026e-07 490.367 1.29431 492.452 3.38784C494.537 5.47815 495.828 8.36768 495.828 11.5614Z" fill="white"/>
<path d="M80.749 11.5624L57.6891 11.5624C57.6891 8.36866 58.9801 5.47913 61.0682 3.38882C63.1531 1.29528 66.0384 0.000977833 69.2207 0.000977558C72.4029 0.000977284 75.2882 1.29528 77.3731 3.38882C79.4581 5.47912 80.749 8.36866 80.749 11.5624Z" fill="white"/>
<path d="M67.6958 10.0011L44.6359 10.0011C44.6359 13.1948 45.9269 16.0844 48.015 18.1747C50.0999 20.2682 52.9852 21.5625 56.1675 21.5625C59.3497 21.5625 62.235 20.2682 64.3199 18.1747C66.4048 16.0844 67.6958 13.1948 67.6958 10.0011Z" fill="#101820"/>
<path d="M126.869 11.5614L103.809 11.5614C103.809 8.36769 105.1 5.47815 107.188 3.38785C109.273 1.29431 112.158 1.27086e-06 115.34 9.95942e-07C118.523 7.21026e-07 121.408 1.29431 123.493 3.38784C125.578 5.47815 126.869 8.36768 126.869 11.5614Z" fill="white"/>
<path d="M113.816 10.0011L90.756 10.0011C90.756 13.1948 92.047 16.0844 94.1351 18.1747C96.22 20.2682 99.1053 21.5625 102.288 21.5625C105.47 21.5625 108.355 20.2682 110.44 18.1747C112.525 16.0844 113.816 13.1948 113.816 10.0011Z" fill="#101820"/>
<path d="M34.6294 11.5624L11.5695 11.5624C11.5695 8.36866 12.8605 5.47913 14.9486 3.38882C17.0335 1.29528 19.9188 0.000977833 23.1011 0.000977558C26.2833 0.000977284 29.1686 1.29528 31.2535 3.38882C33.3384 5.47912 34.6294 8.36866 34.6294 11.5624Z" fill="white"/>
<path d="M80.749 180.999L57.6891 180.999C57.6891 184.193 58.9801 187.082 61.0682 189.173C63.1531 191.266 66.0384 192.561 69.2207 192.561C72.4029 192.561 75.2882 191.266 77.3731 189.173C79.4581 187.082 80.749 184.193 80.749 180.999Z" fill="white"/>
<path d="M34.6294 180.999L11.5695 180.999C11.5695 184.193 12.8605 187.082 14.9486 189.173C17.0335 191.266 19.9188 192.561 23.1011 192.561C26.2833 192.561 29.1686 191.266 31.2535 189.173C33.3384 187.082 34.6294 184.193 34.6294 180.999Z" fill="white"/>
<path d="M126.869 180.999L103.809 180.999C103.809 184.193 105.1 187.082 107.188 189.173C109.273 191.266 112.158 192.561 115.34 192.561C118.523 192.561 121.408 191.266 123.493 189.173C125.578 187.082 126.869 184.193 126.869 180.999Z" fill="white"/>
<path d="M172.989 180.999L149.929 180.999C149.929 184.193 151.22 187.082 153.308 189.173C155.393 191.266 158.278 192.561 161.46 192.561C164.643 192.561 167.528 191.266 169.613 189.173C171.698 187.082 172.989 184.193 172.989 180.999Z" fill="white"/>
<path d="M219.108 180.999L196.048 180.999C196.048 184.193 197.339 187.082 199.428 189.173C201.513 191.266 204.398 192.561 207.58 192.561C210.762 192.561 213.648 191.266 215.733 189.173C217.817 187.082 219.108 184.193 219.108 180.999Z" fill="white"/>
<path d="M311.348 180.999L288.288 180.999C288.288 184.193 289.579 187.082 291.667 189.173C293.752 191.266 296.638 192.561 299.82 192.561C303.002 192.561 305.887 191.266 307.972 189.173C310.057 187.082 311.348 184.193 311.348 180.999Z" fill="white"/>
<path d="M265.229 180.999L242.169 180.999C242.169 184.193 243.46 187.082 245.548 189.173C247.633 191.266 250.518 192.561 253.7 192.561C256.882 192.561 259.768 191.266 261.853 189.173C263.938 187.082 265.229 184.193 265.229 180.999Z" fill="white"/>
<path d="M357.468 180.999L334.408 180.999C334.408 184.193 335.699 187.082 337.787 189.173C339.872 191.266 342.758 192.561 345.94 192.561C349.122 192.561 352.007 191.266 354.092 189.173C356.177 187.082 357.468 184.193 357.468 180.999Z" fill="white"/>
<path d="M403.587 180.999L380.527 180.999C380.527 184.193 381.818 187.082 383.907 189.173C385.992 191.266 388.877 192.561 392.059 192.561C395.241 192.561 398.127 191.266 400.212 189.173C402.296 187.082 403.587 184.193 403.587 180.999Z" fill="white"/>
<path d="M449.708 180.999L426.648 180.999C426.648 184.193 427.939 187.082 430.027 189.173C432.112 191.266 434.997 192.561 438.179 192.561C441.361 192.561 444.247 191.266 446.332 189.173C448.417 187.082 449.708 184.193 449.708 180.999Z" fill="white"/>
<path d="M541.947 180.999L518.887 180.999C518.887 184.193 520.178 187.082 522.266 189.173C524.351 191.266 527.237 192.561 530.419 192.561C533.601 192.561 536.486 191.266 538.571 189.173C540.656 187.082 541.947 184.193 541.947 180.999Z" fill="white"/>
<path d="M495.828 180.999L472.768 180.999C472.768 184.193 474.059 187.082 476.147 189.173C478.232 191.266 481.117 192.561 484.299 192.561C487.482 192.561 490.367 191.266 492.452 189.173C494.537 187.082 495.828 184.193 495.828 180.999Z" fill="white"/>
<path d="M47.6821 182.146L24.6222 182.146C24.6222 178.953 25.9132 176.063 28.0013 173.973C30.0862 171.879 32.9716 170.585 36.1538 170.585C39.336 170.585 42.2213 171.879 44.3062 173.973C46.3912 176.063 47.6821 178.953 47.6821 182.146Z" fill="#111921"/>
<path d="M93.8018 182.146L70.7419 182.146C70.7419 178.953 72.0328 176.063 74.121 173.973C76.2059 171.879 79.0912 170.585 82.2734 170.585C85.4557 170.585 88.341 171.879 90.4259 173.973C92.5108 176.063 93.8018 178.953 93.8018 182.146Z" fill="#111921"/>
<path d="M186.042 182.146L162.982 182.146C162.982 178.953 164.273 176.063 166.361 173.973C168.446 171.879 171.331 170.585 174.513 170.585C177.695 170.585 180.581 171.879 182.666 173.973C184.751 176.063 186.042 178.953 186.042 182.146Z" fill="#111921"/>
<path d="M139.921 182.146L116.861 182.146C116.861 178.953 118.152 176.063 120.241 173.973C122.325 171.879 125.211 170.585 128.393 170.585C131.575 170.585 134.461 171.879 136.546 173.973C138.63 176.063 139.921 178.953 139.921 182.146Z" fill="#111921"/>
<path d="M232.161 182.146L209.101 182.146C209.101 178.953 210.392 176.063 212.48 173.973C214.565 171.879 217.451 170.585 220.633 170.585C223.815 170.585 226.7 171.879 228.785 173.973C230.87 176.063 232.161 178.953 232.161 182.146Z" fill="#111921"/>
<path d="M278.281 182.146L255.221 182.146C255.221 178.953 256.512 176.063 258.6 173.973C260.685 171.879 263.57 170.585 266.752 170.585C269.935 170.585 272.82 171.879 274.905 173.973C276.99 176.063 278.281 178.953 278.281 182.146Z" fill="#111921"/>
<path d="M324.401 182.146L301.341 182.146C301.341 178.953 302.632 176.063 304.72 173.973C306.805 171.879 309.69 170.585 312.873 170.585C316.055 170.585 318.94 171.879 321.025 173.973C323.11 176.063 324.401 178.953 324.401 182.146Z" fill="#111921"/>
<path d="M416.641 182.146L393.581 182.146C393.581 178.953 394.872 176.063 396.96 173.973C399.045 171.879 401.93 170.585 405.112 170.585C408.295 170.585 411.18 171.879 413.265 173.973C415.35 176.063 416.641 178.953 416.641 182.146Z" fill="#111921"/>
<path d="M370.521 182.146L347.461 182.146C347.461 178.953 348.752 176.063 350.84 173.973C352.925 171.879 355.81 170.585 358.992 170.585C362.174 170.585 365.06 171.879 367.145 173.973C369.23 176.063 370.521 178.953 370.521 182.146Z" fill="#111921"/>
<path d="M462.76 182.146L439.7 182.146C439.7 178.953 440.991 176.063 443.079 173.973C445.164 171.879 448.05 170.585 451.232 170.585C454.414 170.585 457.299 171.879 459.384 173.973C461.469 176.063 462.76 178.953 462.76 182.146Z" fill="#111921"/>
<path d="M508.88 182.146L485.82 182.146C485.82 178.953 487.111 176.063 489.199 173.973C491.284 171.879 494.169 170.585 497.352 170.585C500.534 170.585 503.419 171.879 505.504 173.973C507.589 176.063 508.88 178.953 508.88 182.146Z" fill="#111921"/>
</g>
<defs>
<clipPath id="clip0_1200_4469">
<rect width="555" height="193" fill="white"/>
</clipPath>
</defs>
</svg>
