<svg width="469" height="165" viewBox="0 0 469 165" fill="none" xmlns="http://www.w3.org/2000/svg">
<g clip-path="url(#clip0_1199_4383)" filter="url(#filter0_d_1199_4383)">
<path d="M199.457 24.0669H199.455C175.811 24.0669 156.643 43.1341 156.643 66.6547V66.6566C156.643 90.1772 175.811 109.244 199.455 109.244H199.457C223.102 109.244 242.269 90.1772 242.269 66.6566V66.6547C242.269 43.1341 223.102 24.0669 199.457 24.0669Z" fill="white"/>
<path d="M374.764 67.1511L404.385 96.617C404.665 96.8957 404.657 97.345 404.373 97.6178C396.885 104.814 386.69 109.242 375.454 109.242H373.779C350.404 109.242 331.453 90.3926 331.453 67.1374V66.168C331.454 42.9167 350.406 24.0669 373.781 24.0669H375.456C386.694 24.0669 396.889 28.4958 404.375 35.6935C404.659 35.9663 404.665 36.4176 404.387 36.6943L374.764 66.1621C374.49 66.4349 374.49 66.8784 374.764 67.1511Z" fill="white"/>
<path d="M327.225 26.9613V106.179C327.225 106.566 326.909 106.88 326.521 106.88H247.199C246.81 106.88 246.495 106.566 246.495 106.179V27.6932C246.495 27.1104 247.169 26.7827 247.631 27.1418L285.427 56.4605C285.888 56.8196 286.563 56.4919 286.563 55.9091V26.9613C286.563 26.5747 286.878 26.2607 287.267 26.2607H326.521C326.909 26.2607 327.225 26.5747 327.225 26.9613Z" fill="white"/>
<path d="M152.413 27.6933V106.177C152.413 106.564 152.098 106.878 151.709 106.878H74.0264C73.6378 106.878 73.3221 106.564 73.3221 106.177V27.6933C73.3221 27.1105 73.9968 26.7828 74.4584 27.1419L112.436 56.5999C112.69 56.7981 113.047 56.7981 113.302 56.5999L151.277 27.1419C151.739 26.7828 152.413 27.1105 152.413 27.6933Z" fill="white"/>
<path d="M77.5889 129.197H30.861V129.59H77.5889V129.197Z" fill="white"/>
<path d="M437.385 129.197H390.657V129.59H437.385V129.197Z" fill="white"/>
<path d="M91.4251 133.5C88.3872 133.5 86.4264 131.426 86.4264 128.542C86.4264 125.657 88.3872 123.597 91.4251 123.597C93.4135 123.597 94.9324 124.476 95.7471 125.891L95.0981 127.196C94.6563 125.437 93.1511 124.49 91.4251 124.49C89.119 124.49 87.462 126.179 87.462 128.542C87.462 130.904 89.119 132.608 91.4251 132.608C93.1926 132.608 94.7253 131.605 95.1257 129.792L95.7885 131.124C94.9877 132.594 93.4411 133.5 91.4251 133.5Z" fill="white"/>
<path d="M101.006 128.542C101.006 125.671 102.967 123.597 106.005 123.597C109.043 123.597 111.004 125.671 111.004 128.542C111.004 131.413 109.043 133.5 106.005 133.5C102.967 133.5 101.006 131.426 101.006 128.542ZM109.97 128.542C109.97 126.179 108.313 124.49 106.007 124.49C103.701 124.49 102.044 126.179 102.044 128.542C102.044 130.904 103.701 132.608 106.007 132.608C108.313 132.608 109.97 130.904 109.97 128.542Z" fill="white"/>
<path d="M121.305 133.5C118.267 133.5 116.306 131.426 116.306 128.542C116.306 125.657 118.267 123.597 121.305 123.597C123.293 123.597 124.812 124.476 125.627 125.891L124.978 127.196C124.536 125.437 123.031 124.49 121.305 124.49C118.999 124.49 117.342 126.179 117.342 128.542C117.342 130.904 118.999 132.608 121.305 132.608C123.072 132.608 124.605 131.605 125.005 129.792L125.668 131.124C124.867 132.594 123.321 133.5 121.305 133.5Z" fill="white"/>
<path d="M131.344 123.775H132.379V128.652L137.82 123.775H139.146L135.169 127.319L139.532 133.391H138.276L134.409 127.992L132.379 129.806V133.391H131.344V123.775Z" fill="white"/>
<path d="M152.443 124.668H148.549V133.393H147.513V124.668H143.813V123.775H152.443V124.668Z" fill="white"/>
<path d="M162.427 129.215H158.367L156.517 133.391H155.412L159.693 123.775H161.129L165.409 133.391H164.277L162.427 129.215ZM162.04 128.322L160.397 124.613L158.754 128.322H162.04Z" fill="white"/>
<path d="M170.684 123.775H171.72V133.391H170.684V123.775Z" fill="white"/>
<path d="M177.934 123.775H178.969V132.498H184.327V133.391H177.934V123.775Z" fill="white"/>
<path d="M189.643 123.775H196.313V124.668H190.679V127.773H196.175V128.665H190.679V132.498H196.313V133.391H189.643V123.775Z" fill="white"/>
<path d="M202.043 123.775H206.876C208.602 123.775 209.666 124.655 209.666 126.083C209.666 127.209 209.072 128.034 207.898 128.336C208.796 128.638 209.155 129.325 209.155 130.657V131.001C209.155 131.962 209.32 132.882 210.094 133.391H208.768C208.174 132.882 208.05 131.948 208.091 131.001L208.105 130.657C208.174 128.913 207.18 128.583 205.951 128.583H203.079V133.391H202.043V123.775ZM206.876 127.69C207.967 127.69 208.63 127.113 208.63 126.193C208.63 125.273 207.967 124.668 206.876 124.668H203.079V127.69H206.876Z" fill="white"/>
<path d="M215.865 123.775H216.901V133.391H215.865V123.775Z" fill="white"/>
<path d="M229.191 129.215H225.131L223.281 133.391H222.176L226.457 123.775H227.893L232.173 133.391H231.041L229.191 129.215ZM228.804 128.322L227.161 124.613L225.518 128.322H228.804Z" fill="white"/>
<path d="M252.072 128.542C252.072 131.358 250.111 133.391 247.073 133.391H244.076V123.775H247.073C250.111 123.775 252.072 125.781 252.072 128.542ZM247.073 132.512C249.379 132.512 251.036 130.849 251.036 128.542C251.036 126.234 249.379 124.668 247.073 124.668H245.112V132.512H247.073Z" fill="white"/>
<path d="M257.774 123.775H258.81V133.391H257.774V123.775Z" fill="white"/>
<path d="M271.196 128.542C271.196 125.671 273.157 123.597 276.195 123.597C279.233 123.597 281.193 125.671 281.193 128.542C281.193 130.781 280.006 132.539 278.059 133.198C278.321 133.789 278.722 134.228 279.55 134.228C280.323 134.228 280.669 134.009 281.055 133.706L280.558 134.956C280.337 135.108 280.047 135.19 279.592 135.19C278.183 135.19 277.672 134.338 277.382 133.391C277.009 133.459 276.609 133.5 276.195 133.5C273.157 133.5 271.196 131.426 271.196 128.542ZM274.496 132.264C274.372 132.072 274.303 131.825 274.303 131.55C274.303 130.685 274.952 130.121 275.767 130.121C277.203 130.121 277.479 131.248 277.769 132.305C279.219 131.728 280.158 130.327 280.158 128.542C280.158 126.179 278.501 124.49 276.195 124.49C273.889 124.49 272.232 126.179 272.232 128.542C272.232 130.272 273.115 131.646 274.496 132.264ZM277.134 132.511C276.913 131.591 276.664 130.781 275.78 130.781C275.283 130.781 274.993 131.124 274.993 131.605C274.993 132.086 275.366 132.608 276.195 132.608C276.526 132.608 276.844 132.566 277.134 132.511Z" fill="white"/>
<path d="M286.855 129.86V123.775H287.891V129.86C287.891 131.577 288.899 132.621 290.556 132.621C292.213 132.621 293.207 131.577 293.207 129.86V123.775H294.243V129.86C294.243 132.141 292.848 133.528 290.556 133.528C288.264 133.528 286.855 132.141 286.855 129.86Z" fill="white"/>
<path d="M305.993 129.215H301.934L300.083 133.391H298.979L303.259 123.775H304.695L308.976 133.391H307.844L305.993 129.215ZM305.607 128.322L303.964 124.613L302.32 128.322H305.607Z" fill="white"/>
<path d="M314.251 123.775H319.084C320.81 123.775 321.873 124.655 321.873 126.083C321.873 127.209 321.28 128.034 320.106 128.336C321.003 128.638 321.362 129.325 321.362 130.657V131.001C321.362 131.962 321.528 132.882 322.301 133.391H320.976C320.382 132.882 320.258 131.948 320.299 131.001L320.313 130.657C320.382 128.913 319.388 128.583 318.159 128.583H315.287V133.391H314.251V123.775ZM319.084 127.69C320.175 127.69 320.838 127.113 320.838 126.193C320.838 125.273 320.175 124.668 319.084 124.668H315.287V127.69H319.084Z" fill="white"/>
<path d="M335.585 124.668H331.691V133.393H330.655V124.668H326.955V123.775H335.585V124.668Z" fill="white"/>
<path d="M340.899 123.775H341.935V133.391H340.899V123.775Z" fill="white"/>
<path d="M348.149 123.775H354.818V124.668H349.184V127.773H354.68V128.665H349.184V132.498H354.818V133.391H348.149V123.775Z" fill="white"/>
<path d="M360.549 123.775H365.382C367.108 123.775 368.171 124.655 368.171 126.083C368.171 127.209 367.577 128.034 366.404 128.336C367.301 128.638 367.66 129.325 367.66 130.657V131.001C367.66 131.962 367.826 132.882 368.599 133.391H367.273C366.68 132.882 366.555 131.948 366.597 131.001L366.611 130.657C366.68 128.913 365.685 128.583 364.457 128.583H361.584V133.391H360.549V123.775ZM365.384 127.69C366.475 127.69 367.137 127.113 367.137 126.193C367.137 125.273 366.475 124.668 365.384 124.668H361.586V127.69H365.384Z" fill="white"/>
<path d="M374.371 123.775H381.041V124.668H375.407V127.773H380.903V128.665H375.407V132.498H381.041V133.391H374.371V123.775Z" fill="white"/>
<path d="M34.3169 63.892C34.3169 62.1534 32.9341 61.2664 31.3678 61.2664C29.6753 61.2664 27.8013 62.3535 27.9275 65.087L26.6532 63.5839C27.1266 61.3939 28.8369 60.1616 31.3678 60.1616C33.8987 60.1616 35.7352 61.3567 35.7352 63.892C35.7352 68.7447 28.3832 67.5497 28.2372 71.8393H35.8082V73.052H26.8189V72.1473C26.8189 66.6431 34.3169 67.8028 34.3169 63.892Z" fill="white"/>
<path d="M42.7991 66.6608C42.7991 62.6244 44.7461 60.144 47.9319 60.144C51.1177 60.144 53.0647 62.6244 53.0647 66.6608C53.0647 70.6973 51.1177 73.1973 47.9319 73.1973C44.7461 73.1973 42.7991 70.7169 42.7991 66.6608ZM51.6996 66.6608C51.6996 63.3485 50.2616 61.3195 47.9319 61.3195C45.6022 61.3195 44.1641 63.3465 44.1641 66.6608C44.1641 69.9752 45.6022 72.0199 47.9319 72.0199C50.2616 72.0199 51.6996 69.9928 51.6996 66.6608Z" fill="white"/>
<path d="M423.999 63.8368C423.999 62.0982 422.616 61.2112 421.049 61.2112C419.357 61.2112 417.483 62.2983 417.609 65.0318L416.335 63.5287C416.808 61.3388 418.519 60.1064 421.049 60.1064C423.58 60.1064 425.417 61.3015 425.417 63.8368C425.417 68.6895 418.065 67.4945 417.919 71.7841H425.49V72.9968H416.499V72.0922C416.499 66.5879 423.997 67.7476 423.997 63.8368H423.999Z" fill="white"/>
<path d="M433.173 67.5121L433.446 60.3242H441.618V61.5369H434.667L434.521 65.9187C435.339 64.7237 436.649 64.3253 437.851 64.3253C440.49 64.3253 442.256 66.0639 442.256 68.6522C442.256 71.4034 440.326 73.2322 437.45 73.2322C435.156 73.2322 433.337 72.0019 432.791 69.81L434.065 68.3069C434.03 70.9874 435.921 72.0548 437.541 72.0548C439.525 72.0548 440.853 70.6969 440.853 68.6699C440.853 66.6428 439.523 65.4478 437.541 65.4478C435.939 65.4478 434.884 66.2798 434.247 67.6024L433.173 67.5121Z" fill="white"/>
</g>
<defs>
<filter id="filter0_d_1199_4383" x="3.8147e-05" y="-0.000123262" width="468.91" height="164.433" filterUnits="userSpaceOnUse" color-interpolation-filters="sRGB">
<feFlood flood-opacity="0" result="BackgroundImageFix"/>
<feColorMatrix in="SourceAlpha" type="matrix" values="0 0 0 0 0 0 0 0 0 0 0 0 0 0 0 0 0 0 127 0" result="hardAlpha"/>
<feOffset dy="2.58785"/>
<feGaussianBlur stdDeviation="13.3274"/>
<feComposite in2="hardAlpha" operator="out"/>
<feColorMatrix type="matrix" values="0 0 0 0 0.0117647 0 0 0 0 0.00784314 0 0 0 0 0.0156863 0 0 0 1 0"/>
<feBlend mode="normal" in2="BackgroundImageFix" result="effect1_dropShadow_1199_4383"/>
<feBlend mode="normal" in="SourceGraphic" in2="effect1_dropShadow_1199_4383" result="shape"/>
</filter>
<clipPath id="clip0_1199_4383">
<rect width="415.6" height="111.123" fill="white" transform="translate(26.6549 24.0669)"/>
</clipPath>
</defs>
</svg>
