<?xml version="1.0" encoding="UTF-8"?>
<svg id="Layer_1" xmlns="http://www.w3.org/2000/svg" version="1.1" viewBox="0 0 738 394">
  <!-- Generator: Adobe Illustrator 30.1.0, SVG Export Plug-In . SVG Version: 2.1.1 Build 136)  -->
  <defs>
    <style>
      .st0 {
        fill: #f7ff16;
      }

      .st1 {
        fill: #fff;
      }
    </style>
  </defs>
  <path class="st1" d="M654.3,18.6h-3.1c-20.7,0-39.4,8.2-53.2,21.5-.5.5-.5,1.3,0,1.9l54.5,54.5c.5.5.5,1.3,0,1.8h0s-54.5,54.5-54.5,54.5c-.5.5-.5,1.3,0,1.8,13.8,13.3,32.5,21.5,53.2,21.5h3.1c43,0,77.8-34.8,77.8-77.8v-1.8c0-43-34.8-77.8-77.8-77.8Z"/>
  <path class="st1" d="M539.3,38.4v-11.1c0-2.8-2.3-5.1-5.1-5.1h-108.5c-2.8,0-5.1,2.3-5.1,5.1v13.2c0,2.8,2.3,5.1,5.1,5.1h79.7l-83.7,109.3c-.7.9-1,2-1,3.1v11.1c0,2.8,2.3,5.1,5.1,5.1h108.5c2.8,0,5.1-2.3,5.1-5.1v-13.2c0-2.8-2.3-5.1-5.1-5.1h-79.7l83.7-109.3c.7-.9,1-2,1-3.1Z"/>
  <path class="st1" d="M575.8,22.2h-15.2c-2.8,0-5.1,2.3-5.1,5.1v141.8c0,2.8,2.3,5.1,5.1,5.1h15.2c2.8,0,5.1-2.3,5.1-5.1V27.2c0-2.8-2.3-5.1-5.1-5.1Z"/>
  <path class="st1" d="M414.5,167l-62.8-141.8c-.8-1.8-2.6-3-4.6-3h-21.1c-2,0-3.8,1.2-4.6,3l-62.8,141.8c-.7,1.6-.5,3.4.4,4.8.9,1.4,2.5,2.3,4.2,2.3h16.2c2,0,3.8-1.2,4.6-3l25.8-58.5h52.9l25.8,58.5c.8,1.8,2.6,3,4.6,3h16.6c1.7,0,3.3-.9,4.2-2.3.9-1.4,1.1-3.2.4-4.8ZM320,89.2l16.3-37.1,16.3,37.1h-32.7Z"/>
  <path class="st1" d="M259.5,33.9c-9.3-7.8-22.3-11.7-37.7-11.7h-62.2c-2.8,0-5.1,2.3-5.1,5.1v141.8c0,2.8,2.3,5.1,5.1,5.1h15.2c2.8,0,5.1-2.3,5.1-5.1v-57.7h41.9c15.4,0,28.4-4,37.7-11.8,9.4-7.9,14.4-19.3,14.4-33s-5-24.8-14.4-32.6ZM241.9,82.1c-4.3,3.6-11,5.9-20,5.9h-41.9v-42.5h41.9c9,0,15.7,2.3,20,5.8,4.2,3.5,6.7,8.5,6.7,15.2s-2.5,12-6.7,15.5Z"/>
  <path class="st1" d="M120.2,95.4c-9.5-6.7-21.9-9.5-33.3-11.7-11.9-2.2-22.4-3.6-30.3-6.9-3.8-1.6-6.5-3.5-8.3-5.7-1.7-2.1-2.8-4.9-2.8-9,0-6.5,2.9-11.2,7.7-14.5,4.9-3.4,12-5.3,19.9-5.3s17.4,2.6,23.7,8.2c6.2,5.4,10.5,14,9.9,27.2-.1,2.2,1.2,4.2,3.2,5,2,.8,4.3.2,5.7-1.5l14.2-16.8c1-1.2,1.4-2.8,1.1-4.4-2.9-12.8-9.7-23-19.7-29.9-9.9-6.9-22.7-10.3-37.3-10.3s-27.7,3-37.7,10.2c-10.2,7.3-16.4,18.5-16.4,33.6s1.6,14.3,4.5,19.7c3,5.4,7.2,9.5,12.1,12.6,9.5,6,21.9,8.5,33.2,10.5,11.8,2.1,22.3,3.6,30.1,7.2,3.8,1.8,6.5,3.8,8.3,6.4,1.8,2.5,3,5.9,3,10.6,0,7.2-3.5,12.5-9.6,16.3-6.2,3.9-15,6-24.5,6s-21.6-2.9-29-8.8c-7.2-5.8-12-14.9-11.5-28.7,0-2.2-1.2-4.1-3.2-4.9-2-.8-4.3-.2-5.7,1.5l-14.2,16.8c-1,1.2-1.4,2.8-1.1,4.4,2.9,12.9,9.8,23.8,20.7,31.4,10.8,7.6,25.2,11.7,42.6,11.7s30.5-3.2,41.9-10.6c11.7-7.6,19.3-19.4,19.3-35.8s-6.4-27.4-16.4-34.3Z"/>
  <path class="st0" d="M131.6,210.7H5.1c-2.8,0-5.1,2.3-5.1,5.1v13.2c0,2.8,2.3,5.1,5.1,5.1h49.2v123.5c0,2.8,2.3,5.1,5.1,5.1h15.2c2.8,0,5.1-2.3,5.1-5.1v-123.5h52c2.8,0,5.1-2.3,5.1-5.1v-13.2c0-2.8-2.3-5.1-5.1-5.1Z"/>
  <path class="st0" d="M250.7,234c2.8,0,5.1-2.3,5.1-5.1v-13.2c0-2.8-2.3-5.1-5.1-5.1h-97.8c-2.8,0-5.1,2.3-5.1,5.1v141.8c0,2.8,2.3,5.1,5.1,5.1h97.8c2.8,0,5.1-2.3,5.1-5.1v-13.2c0-2.8-2.3-5.1-5.1-5.1h-77.6v-46.4h75.5c2.8,0,5.1-2.3,5.1-5.1v-13.2c0-2.8-2.3-5.1-5.1-5.1h-75.5v-35.6h77.6Z"/>
  <path class="st0" d="M543.9,222.4c-9.3-7.8-22.3-11.7-37.7-11.7h-62.2c-2.8,0-5.1,2.3-5.1,5.1v141.8c0,2.8,2.3,5.1,5.1,5.1h15.2c2.8,0,5.1-2.3,5.1-5.1v-57.7h41.9c15.4,0,28.4-4,37.7-11.8,9.4-7.9,14.3-19.3,14.3-33s-5-24.8-14.4-32.6ZM526.2,270.6c-4.3,3.6-11,5.9-20,5.9h-41.9v-42.5h41.9c9,0,15.7,2.3,20,5.8,4.2,3.5,6.7,8.5,6.7,15.2s-2.5,12-6.7,15.5Z"/>
  <path class="st0" d="M721.6,285.7h-74.9c-.7,0-1.3-.6-1.3-1.3v-74.8c0-.7-.6-1.3-1.3-1.3-18.6.3-37.1,7.6-51.3,21.8l-2.1,2.1c-29.5,29.5-29.5,77.4,0,106.9l1.2,1.2c29.5,29.5,77.4,29.5,106.9,0l2.1-2.1c14.2-14.2,21.5-32.7,21.8-51.3,0-.7-.5-1.3-1.3-1.3Z"/>
  <path class="st0" d="M409.5,210.7h-23.5c-1.9,0-3.6,1-4.5,2.7l-37.2,70.7-37.2-70.7c-.9-1.7-2.6-2.7-4.5-2.7h-24.5c-2.8,0-5.1,2.3-5.1,5.1v141.8c0,2.8,2.3,5.1,5.1,5.1h15.2c2.8,0,5.1-2.3,5.1-5.1v-107.6l41.1,75.8c.9,1.6,2.6,2.7,4.5,2.7s3.6-1,4.5-2.7l40.9-75.8v107.6c0,2.8,2.3,5.1,5.1,5.1h15.2c2.8,0,5.1-2.3,5.1-5.1v-141.8c0-2.8-2.3-5.1-5.1-5.1Z"/>
</svg>