<svg width="1077" height="149" viewBox="0 0 1077 149" fill="none" xmlns="http://www.w3.org/2000/svg">
<path d="M400.671 122V19.4297H411.66V122H400.671Z" fill="white"/>
<path d="M381.608 27.4888L316.549 112.476H381.608V122H303.069V113.941L368.128 28.9541H303.069V19.4297H381.608V27.4888Z" fill="white"/>
<path d="M279.581 122L259.946 77.4551H216.866L197.231 122H185.509L230.933 19.4297H246.172L291.596 122H279.581ZM220.969 67.9308H255.843L238.406 28.368L220.969 67.9308Z" fill="white"/>
<path d="M155.602 19.4297C176.702 19.4297 189.597 30.2728 189.597 47.8563C189.597 65.7328 176.702 76.576 155.602 76.576H121.608V122H110.618V19.4297H155.602ZM121.608 67.0516H155.602C169.816 67.0516 178.607 59.7251 178.607 47.8563C178.607 36.134 169.816 28.9541 155.602 28.9541H121.608V67.0516Z" fill="white"/>
<path d="M47.915 26.6101C35.46 26.6101 24.3238 32.6178 24.3238 44.6332C24.3238 74.232 90.2619 50.0548 90.2619 93.5739C90.2619 114.527 71.0666 123.466 49.6734 123.466C25.6426 123.466 11.2828 112.183 7.47302 95.1857L17.73 83.0238C16.9974 105.15 33.4086 113.941 50.6991 113.941C65.352 113.941 78.9791 107.494 78.9791 94.16C78.9791 61.3375 13.0411 86.687 13.0411 45.6589C13.0411 26.1705 28.7197 17.6719 48.5011 17.6719C68.5756 17.6719 82.3493 27.0497 86.1591 43.9005L75.902 56.0625C76.9277 34.9623 61.8353 26.6101 47.915 26.6101Z" fill="white"/>
<path d="M48.5011 14.0078C59.0909 14.0078 68.3321 16.4824 75.5148 21.4551C82.5196 26.3047 87.3298 33.3717 89.5275 42.2295L89.7325 43.0918L89.7736 43.3027C89.9479 44.3569 89.6525 45.4394 88.9591 46.2617L78.7023 58.4238C77.6895 59.6246 76.0236 60.0454 74.5616 59.4707C73.0997 58.8958 72.167 57.4528 72.2433 55.8838C72.7081 46.3207 69.5499 40.0847 65.0968 36.1768C60.5289 32.1682 54.2059 30.2725 47.9152 30.2725C42.2136 30.2725 37.1034 31.6575 33.5333 34.1279C30.089 36.5114 27.9874 39.9355 27.9874 44.6328L27.9962 45.1768C28.0888 47.8457 28.8664 49.7198 30.0187 51.1621C31.3024 52.7688 33.2738 54.115 36.0353 55.2656C41.7499 57.6467 49.3793 58.6693 57.9689 60.2822C66.1902 61.826 75.1579 63.9099 82.0558 68.7256C89.2726 73.764 93.9249 81.5638 93.9249 93.5732C93.9249 105.378 88.4228 113.969 79.9855 119.449C71.7223 124.816 60.8003 127.129 49.673 127.129C37.0981 127.129 26.7163 124.175 18.8907 118.701C11.0262 113.2 5.99082 105.321 3.89856 95.9863C3.64814 94.869 3.93475 93.6986 4.67297 92.8232L14.9298 80.6611C15.9359 79.4685 17.5875 79.0439 19.0441 79.6035C20.5007 80.1633 21.4434 81.5849 21.3917 83.1445C21.0596 93.1744 24.5659 99.7543 29.7521 103.925C35.0821 108.211 42.6047 110.277 50.6993 110.277C57.5601 110.277 63.8982 108.757 68.3907 105.945C72.7561 103.213 75.3156 99.3477 75.3156 94.1592C75.3155 90.7066 74.4621 88.2834 73.1632 86.4619C71.8362 84.6011 69.8437 83.0891 67.129 81.8242C61.5041 79.2035 53.8979 78.0896 45.3771 76.5938C37.2237 75.1624 28.2696 73.3752 21.3868 69.0264C17.8639 66.8003 14.8107 63.8664 12.6603 59.9336C10.5125 56.0056 9.37805 51.2873 9.37805 45.6582C9.37811 34.7835 13.8274 26.6534 21.2257 21.375C28.4536 16.2182 38.1623 14.0078 48.5011 14.0078ZM155.603 15.7666C166.743 15.7667 176.163 18.6288 182.864 24.2412C189.643 29.9186 193.26 38.0994 193.26 47.8564L193.25 48.7783C193.032 58.2549 189.444 66.176 182.874 71.7197C176.169 77.3772 166.742 80.2392 155.603 80.2393H125.271V122C125.271 124.023 123.631 125.663 121.608 125.663H110.618C108.595 125.663 106.955 124.023 106.955 122V19.4297C106.955 17.4066 108.595 15.7666 110.618 15.7666H155.603ZM246.172 15.7666C247.621 15.7667 248.935 16.6211 249.522 17.9463L294.945 120.517C295.447 121.65 295.342 122.959 294.666 123.998C293.99 125.037 292.835 125.663 291.596 125.663H279.581C278.22 125.663 276.979 124.91 276.347 123.721L276.229 123.478L257.557 81.1182H219.255L200.583 123.478C199.998 124.806 198.683 125.663 197.232 125.663H185.509C184.27 125.663 183.114 125.037 182.439 123.998C181.763 122.96 181.658 121.65 182.159 120.517L227.584 17.9463L227.702 17.7031C228.335 16.5176 229.574 15.7668 230.933 15.7666H246.172ZM381.609 15.7666C383.632 15.7668 385.272 17.4067 385.272 19.4297V27.4893L385.259 27.7891C385.202 28.4869 384.945 29.1565 384.517 29.7158L323.967 108.812H381.609C383.632 108.813 385.272 110.453 385.272 112.476V122C385.272 124.023 383.632 125.663 381.609 125.663H303.068C301.046 125.663 299.405 124.023 299.405 122V113.94C299.406 113.136 299.671 112.353 300.16 111.714L360.71 32.6172H303.068C301.046 32.617 299.405 30.9771 299.405 28.9541V19.4297C299.405 17.4067 301.046 15.7668 303.068 15.7666H381.609ZM411.66 15.7666C413.683 15.7667 415.323 17.4066 415.323 19.4297V122C415.323 124.023 413.683 125.663 411.66 125.663H400.671C398.648 125.663 397.008 124.023 397.008 122V19.4297C397.008 17.4066 398.648 15.7666 400.671 15.7666H411.66ZM48.5011 17.6719C28.7198 17.6719 13.0413 26.17 13.0411 45.6582C13.0411 86.6862 78.9792 61.3372 78.9796 94.1592L78.9689 94.7793C78.5528 107.693 65.1232 113.94 50.6993 113.94L49.8898 113.935C32.9003 113.663 17.0094 104.804 17.7306 83.0234L7.47278 95.1855C11.2826 112.183 25.6426 123.465 49.673 123.465C71.0661 123.465 90.2618 114.527 90.2618 93.5732C90.2617 50.3942 25.3499 73.858 24.3361 45.3164L24.3243 44.6328C24.3243 32.6174 35.4602 26.6094 47.9152 26.6094L48.5685 26.6162C62.3029 26.8743 76.9119 35.2916 75.9025 56.0615L86.1593 43.9004C82.4091 27.3129 69.0036 17.9668 49.4376 17.6787L48.5011 17.6719ZM110.618 122H121.608V76.5762H155.603L156.585 76.5684C176.776 76.2411 189.199 65.7934 189.588 48.6895L189.597 47.8564C189.597 30.5477 177.102 19.77 156.585 19.4375L155.603 19.4297H110.618V122ZM185.509 122H197.232L216.866 77.4551H259.945L279.581 122H291.596L246.172 19.4297H230.933L185.509 122ZM303.068 28.9541H368.128L303.068 113.94V122H381.609V112.476H316.55L381.609 27.4893V19.4297H303.068V28.9541ZM400.671 122H411.66V19.4297H400.671V122ZM255.843 67.9307H220.969L238.406 28.3682L255.843 67.9307ZM155.603 28.9541C169.816 28.9542 178.608 36.1343 178.608 47.8564L178.601 48.4092C178.331 59.9522 169.594 67.0516 155.603 67.0518H121.608V28.9541H155.603ZM226.587 64.2676H250.226L238.405 37.4502L226.587 64.2676ZM125.271 63.3887H155.603C162.117 63.3886 166.95 61.7087 170.088 59.0918C173.148 56.5397 174.944 52.8135 174.944 47.8564C174.944 42.9907 173.162 39.3442 170.111 36.8418C167.073 34.3494 162.434 32.7215 156.21 32.6221L155.603 32.6172H125.271V63.3887Z" fill="white"/>
<path d="M467.187 71.0977L427.779 110.505C427.406 110.878 427.417 111.479 427.795 111.844C437.757 121.467 451.32 127.391 466.268 127.391H468.496C499.595 127.391 524.807 102.181 524.807 71.0794V69.7829C524.807 38.6841 499.598 13.4717 468.496 13.4717H466.268C451.317 13.4717 437.754 19.3949 427.795 29.0211C427.417 29.3859 427.409 29.9895 427.779 30.3595L467.189 69.7698C467.554 70.1346 467.554 70.7277 467.189 71.0925L467.187 71.0977Z" fill="white"/>
<path d="M908.534 19.4297C929.634 19.4297 942.528 30.2728 942.528 47.8563C942.528 65.7328 929.634 76.576 908.534 76.576H874.539V122H863.549V19.4297H908.534ZM874.539 67.0516H908.534C922.747 67.0516 931.539 59.7251 931.539 47.8563C931.539 36.134 922.747 28.9541 908.534 28.9541H874.539V67.0516Z" fill="#F7FF16"/>
<path d="M791.115 97.2366L754.483 29.6867V122H743.493V19.4297H761.223L791.408 76.7225L821.593 19.4297H838.59V122H827.601V29.6867L791.115 97.2366Z" fill="#F7FF16"/>
<path d="M652.914 122V19.4297H723.687V28.9541H663.904V62.0696H722.222V71.594H663.904V112.476H723.687V122H652.914Z" fill="#F7FF16"/>
<path d="M637.523 19.4297V28.9541H596.202V122H585.212V28.9541H545.942V19.4297H637.523Z" fill="#F7FF16"/>
<path d="M637.522 15.7676C639.545 15.7676 641.186 17.4075 641.186 19.4307V28.9551L641.182 29.1436C641.083 31.0791 639.482 32.6182 637.522 32.6182H599.865V122.001L599.86 122.189C599.762 124.125 598.162 125.664 596.202 125.664H585.212C583.189 125.664 581.549 124.024 581.549 122.001V32.6182H545.942C543.919 32.6182 542.279 30.9782 542.279 28.9551V19.4307C542.279 17.4075 543.919 15.7676 545.942 15.7676H637.522ZM723.687 15.7676C725.711 15.7676 727.35 17.4075 727.35 19.4307V28.9551C727.35 30.9782 725.711 32.6182 723.687 32.6182H667.567V58.4072H722.223C724.245 58.4074 725.885 60.0474 725.886 62.0703V71.5947L725.881 71.7832C725.783 73.7188 724.182 75.2576 722.223 75.2578H667.567V108.813H723.687C725.711 108.813 727.35 110.453 727.35 112.477V122.001C727.35 124.024 725.711 125.664 723.687 125.664H652.914C650.891 125.664 649.251 124.024 649.251 122.001V19.4307C649.251 17.4076 650.891 15.7676 652.914 15.7676H723.687ZM761.223 15.7676C762.497 15.7676 763.674 16.4292 764.338 17.5029L764.464 17.7236L791.408 68.8633L818.352 17.7236L818.477 17.5029C819.142 16.4291 820.318 15.7677 821.593 15.7676H838.591C840.614 15.7678 842.254 17.4077 842.254 19.4307V122.001L842.249 122.189C842.151 124.125 840.55 125.664 838.591 125.664H827.6C825.577 125.664 823.937 124.024 823.937 122.001V44.1777L794.338 98.9785C793.699 100.162 792.463 100.899 791.118 100.9C789.857 100.901 788.69 100.255 788.021 99.2002L787.894 98.9844L758.145 44.125V122.001C758.145 124.024 756.505 125.664 754.482 125.664H743.493C741.47 125.664 739.83 124.024 739.83 122.001V19.4307C739.83 17.4075 741.47 15.7676 743.493 15.7676H761.223ZM908.534 15.7676C919.674 15.7676 929.094 18.6297 935.796 24.2422C942.575 29.9196 946.191 38.1003 946.191 47.8574L946.182 48.7793C945.964 58.2559 942.376 66.177 935.806 71.7207C929.1 77.3783 919.674 80.2402 908.534 80.2402H878.202V122.001C878.202 124.024 876.562 125.664 874.539 125.664H863.55C861.527 125.664 859.887 124.024 859.887 122.001V19.4307C859.887 17.4075 861.527 15.7676 863.55 15.7676H908.534ZM545.942 28.9551H585.212V122.001H596.202V28.9551H637.522V19.4307H545.942V28.9551ZM652.914 122.001H723.687V112.477H663.904V71.5947H722.223V62.0703H663.904V28.9551H723.687V19.4307H652.914V122.001ZM743.493 122.001H754.482V29.6875L791.115 97.2373L827.6 29.6875V122.001H838.591V19.4307H821.593L791.408 76.7236L761.223 19.4307H743.493V122.001ZM863.55 122.001H874.539V76.5771H908.534L909.516 76.5693C929.708 76.2421 942.13 65.7944 942.519 48.6904L942.528 47.8574C942.528 30.5486 930.034 19.7709 909.516 19.4385L908.534 19.4307H863.55V122.001ZM908.534 28.9551C922.747 28.9552 931.539 36.1352 931.539 47.8574L931.532 48.4102C931.263 59.9532 922.525 67.0526 908.534 67.0527H874.539V28.9551H908.534ZM878.202 63.3896H908.534C915.048 63.3896 919.882 61.7097 923.019 59.0928C926.079 56.5407 927.876 52.8145 927.876 47.8574C927.876 42.9916 926.094 39.3452 923.043 36.8428C920.004 34.3503 915.366 32.7224 909.141 32.623L908.534 32.6182H878.202V63.3896Z" fill="#F7FF16"/>
<path d="M1010.26 70.3493L1064.41 70.3493C1064.92 70.3493 1065.33 70.7694 1065.32 71.2797C1065.09 84.7369 1059.84 98.1255 1049.57 108.396L1048.04 109.927C1026.67 131.295 992.025 131.297 970.655 109.927L969.764 109.037C948.397 87.6688 948.395 53.0244 969.764 31.6549L971.295 30.124C981.568 19.8513 994.957 14.6022 1008.41 14.3732C1008.92 14.3642 1009.34 14.7736 1009.34 15.282L1009.34 69.4387C1009.34 69.94 1009.75 70.3475 1010.25 70.3475L1010.26 70.3493Z" fill="#F7FF16"/>
</svg>
